<svg width="14" height="14" viewBox="0 0 14 14" fill="none" xmlns="http://www.w3.org/2000/svg">
<path d="M1 8.5V9.5H3.293L0 12.793L0.707 13.5L4 10.207V12.5H5V8.5H1Z" fill="#FF4CC0"/>
<path d="M12.5 8.5C13.327 8.5 14 7.827 14 7C14 6.173 13.327 5.5 12.5 5.5C12.1908 5.50092 11.8894 5.59754 11.6373 5.77659C11.3852 5.95564 11.1947 6.20834 11.092 6.5H8.207L11.857 2.85C12.053 2.9435 12.269 3 12.5 3C13.327 3 14 2.327 14 1.5C14 0.673 13.327 0 12.5 0C11.673 0 11 0.673 11 1.5C11 1.731 11.057 1.947 11.15 2.1425L7 6.293V3C7 2.449 7.4485 2 8 2H9V1H8C7.4 1 6.867 1.2715 6.5 1.691C6.31402 1.47515 6.08385 1.30176 5.82507 1.18255C5.56628 1.06333 5.28492 1.00108 5 1H4.5C2.019 1 0 3.0185 0 5.5V7.5H1V6H2.5C3.327 6 4 5.327 4 4.5V3.5H3V4.5C3 4.63261 2.94732 4.75979 2.85355 4.85355C2.75979 4.94732 2.63261 5 2.5 5H1.04C1.284 3.3065 2.74 2 4.5 2H5C5.5515 2 6 2.449 6 3V5H5V6H6V11C6 12.103 6.897 13 8 13H9V12H8C7.4485 12 7 11.5515 7 11V7.707L11.15 11.8575C11.0565 12.053 11 12.269 11 12.5C11 13.3275 11.673 14 12.5 14C13.327 14 14 13.3275 14 12.5C14 11.6725 13.327 11 12.5 11C12.2772 11.0012 12.0576 11.0526 11.8575 11.1505L8.207 7.5005H11.092C11.1948 7.79206 11.3853 8.04466 11.6374 8.22362C11.8895 8.40257 12.1908 8.49912 12.5 8.5ZM12.5 6.5C12.6326 6.5 12.7598 6.55268 12.8536 6.64645C12.9473 6.74021 13 6.86739 13 7C13 7.13261 12.9473 7.25979 12.8536 7.35355C12.7598 7.44732 12.6326 7.5 12.5 7.5C12.3674 7.5 12.2402 7.44732 12.1464 7.35355C12.0527 7.25979 12 7.13261 12 7C12 6.86739 12.0527 6.74021 12.1464 6.64645C12.2402 6.55268 12.3674 6.5 12.5 6.5ZM12.5 1C12.6287 1.00576 12.7503 1.06095 12.8394 1.15409C12.9284 1.24723 12.9781 1.37113 12.9781 1.5C12.9781 1.62887 12.9284 1.75277 12.8394 1.84591C12.7503 1.93905 12.6287 1.99424 12.5 2C12.3674 2 12.2402 1.94732 12.1464 1.85355C12.0527 1.75979 12 1.63261 12 1.5C12 1.36739 12.0527 1.24021 12.1464 1.14645C12.2402 1.05268 12.3674 1 12.5 1ZM12.5 12C12.6287 12.0058 12.7503 12.061 12.8394 12.1541C12.9284 12.2472 12.9781 12.3711 12.9781 12.5C12.9781 12.6289 12.9284 12.7528 12.8394 12.8459C12.7503 12.939 12.6287 12.9942 12.5 13C12.3674 13 12.2402 12.9473 12.1464 12.8536C12.0527 12.7598 12 12.6326 12 12.5C12 12.3674 12.0527 12.2402 12.1464 12.1464C12.2402 12.0527 12.3674 12 12.5 12Z" fill="#FF4CC0"/>
</svg>
