<svg width="20" height="20" viewBox="0 0 20 20" fill="none" xmlns="http://www.w3.org/2000/svg">
<path d="M9.23464 3.07829C9.23475 2.97412 9.21371 2.871 9.1728 2.7752C9.13188 2.67939 9.07194 2.59289 8.9966 2.52094C8.92127 2.44899 8.83211 2.39308 8.73453 2.3566C8.63695 2.32013 8.53297 2.30384 8.42891 2.30874C3.73618 2.53037 0 6.40353 0 11.1494C0 16.0368 3.96243 19.9992 8.84986 19.9992C13.5965 19.9992 17.4696 16.2631 17.6897 11.5703C17.6946 11.4663 17.6783 11.3624 17.6419 11.2649C17.6055 11.1674 17.5497 11.0782 17.4778 11.0029C17.4059 10.9276 17.3195 10.8676 17.2238 10.8267C17.1281 10.7857 17.025 10.7646 16.9209 10.7646H11.1585C10.6483 10.7646 10.1589 10.5619 9.79813 10.2011C9.43733 9.8403 9.23464 9.35095 9.23464 8.84071V3.07829Z" fill="url(#paint0_linear_2_12)"/>
<path d="M11.5795 0.000850484C11.4755 -0.00404275 11.3716 0.0122168 11.274 0.0486452C11.1765 0.0850736 11.0874 0.140913 11.012 0.212784C10.9367 0.284655 10.8768 0.371063 10.8358 0.466777C10.7948 0.562492 10.7737 0.665523 10.7737 0.769634V8.45593C10.7737 8.66003 10.8548 8.85577 10.9991 9.00009C11.1435 9.14441 11.3392 9.22548 11.5433 9.22548H19.2296C19.3338 9.2256 19.4369 9.20456 19.5327 9.16365C19.6285 9.12273 19.715 9.06279 19.7869 8.98745C19.8589 8.91212 19.9148 8.82296 19.9513 8.72538C19.9878 8.6278 20.004 8.52382 19.9991 8.41976C19.7852 3.86709 16.1314 0.214017 11.5787 0.000850484" fill="url(#paint1_linear_2_12)"/>
<defs>
<linearGradient id="paint0_linear_2_12" x1="17.6905" y1="19.9992" x2="-10.6145" y2="-8.30569" gradientUnits="userSpaceOnUse">
<stop stop-color="#6D37CD"/>
<stop offset="0.641" stop-color="#FF4CC0"/>
</linearGradient>
<linearGradient id="paint1_linear_2_12" x1="19.2304" y1="7.53401" x2="12.6191" y2="8.27604e-05" gradientUnits="userSpaceOnUse">
<stop stop-color="#FF4CC0"/>
<stop offset="1" stop-color="#EA71EF"/>
</linearGradient>
</defs>
</svg>
